<mxfile host="app.diagrams.net" modified="2023-03-15T02:23:10.818Z" agent="5.0 (Macintosh; Intel Mac OS X 10_15_7) AppleWebKit/537.36 (KHTML, like Gecko) Chrome/111.0.0.0 Safari/537.36" etag="G1B1tTw_FDw6Vh4HgRJI" version="21.0.2" type="github">
  <diagram name="Page-1" id="c_FprrVQM6tbdMqfgn4-">
    <mxGraphModel dx="1026" dy="586" grid="1" gridSize="10" guides="1" tooltips="1" connect="1" arrows="1" fold="1" page="1" pageScale="1" pageWidth="850" pageHeight="1100" math="0" shadow="0">
      <root>
        <mxCell id="0" />
        <mxCell id="1" parent="0" />
        <mxCell id="r1eSAYKM6OvgT91_HVrA-9" value="" style="rounded=0;whiteSpace=wrap;html=1;" vertex="1" parent="1">
          <mxGeometry x="500" y="40" width="290" height="370" as="geometry" />
        </mxCell>
        <mxCell id="r1eSAYKM6OvgT91_HVrA-7" value="" style="rounded=0;whiteSpace=wrap;html=1;" vertex="1" parent="1">
          <mxGeometry x="40" y="40" width="320" height="370" as="geometry" />
        </mxCell>
        <mxCell id="r1eSAYKM6OvgT91_HVrA-6" style="edgeStyle=orthogonalEdgeStyle;rounded=0;orthogonalLoop=1;jettySize=auto;html=1;" edge="1" parent="1" source="r1eSAYKM6OvgT91_HVrA-2" target="r1eSAYKM6OvgT91_HVrA-3">
          <mxGeometry relative="1" as="geometry" />
        </mxCell>
        <mxCell id="r1eSAYKM6OvgT91_HVrA-2" value="" style="sketch=0;pointerEvents=1;shadow=0;dashed=0;html=1;strokeColor=none;fillColor=#005F4B;labelPosition=center;verticalLabelPosition=bottom;verticalAlign=top;align=center;outlineConnect=0;shape=mxgraph.veeam2.server_cluster;" vertex="1" parent="1">
          <mxGeometry x="100" y="90" width="186" height="78" as="geometry" />
        </mxCell>
        <mxCell id="r1eSAYKM6OvgT91_HVrA-10" style="edgeStyle=orthogonalEdgeStyle;rounded=0;orthogonalLoop=1;jettySize=auto;html=1;" edge="1" parent="1" source="r1eSAYKM6OvgT91_HVrA-3" target="r1eSAYKM6OvgT91_HVrA-8">
          <mxGeometry relative="1" as="geometry" />
        </mxCell>
        <mxCell id="r1eSAYKM6OvgT91_HVrA-3" value="" style="sketch=0;outlineConnect=0;fontColor=#232F3E;gradientColor=none;fillColor=#2E27AD;strokeColor=none;dashed=0;verticalLabelPosition=bottom;verticalAlign=top;align=center;html=1;fontSize=12;fontStyle=0;aspect=fixed;pointerEvents=1;shape=mxgraph.aws4.rds_multi_az_db_cluster;" vertex="1" parent="1">
          <mxGeometry x="154" y="320" width="78" height="78" as="geometry" />
        </mxCell>
        <mxCell id="r1eSAYKM6OvgT91_HVrA-8" value="" style="sketch=0;outlineConnect=0;fontColor=#232F3E;gradientColor=none;fillColor=#2E27AD;strokeColor=none;dashed=0;verticalLabelPosition=bottom;verticalAlign=top;align=center;html=1;fontSize=12;fontStyle=0;aspect=fixed;pointerEvents=1;shape=mxgraph.aws4.rds_multi_az_db_cluster;" vertex="1" parent="1">
          <mxGeometry x="590" y="320" width="78" height="78" as="geometry" />
        </mxCell>
        <mxCell id="r1eSAYKM6OvgT91_HVrA-11" value="一小时同步一次" style="text;html=1;strokeColor=none;fillColor=none;align=center;verticalAlign=middle;whiteSpace=wrap;rounded=0;" vertex="1" parent="1">
          <mxGeometry x="350" y="368" width="170" height="30" as="geometry" />
        </mxCell>
        <mxCell id="r1eSAYKM6OvgT91_HVrA-12" value="Dallas09" style="text;html=1;strokeColor=none;fillColor=none;align=center;verticalAlign=middle;whiteSpace=wrap;rounded=0;" vertex="1" parent="1">
          <mxGeometry x="60" y="50" width="60" height="30" as="geometry" />
        </mxCell>
        <mxCell id="r1eSAYKM6OvgT91_HVrA-13" value="US-2" style="text;html=1;strokeColor=none;fillColor=none;align=center;verticalAlign=middle;whiteSpace=wrap;rounded=0;" vertex="1" parent="1">
          <mxGeometry x="510" y="50" width="60" height="30" as="geometry" />
        </mxCell>
        <mxCell id="r1eSAYKM6OvgT91_HVrA-14" value="" style="rounded=0;whiteSpace=wrap;html=1;" vertex="1" parent="1">
          <mxGeometry x="40" y="480" width="600" height="440" as="geometry" />
        </mxCell>
        <mxCell id="r1eSAYKM6OvgT91_HVrA-32" style="edgeStyle=orthogonalEdgeStyle;rounded=0;orthogonalLoop=1;jettySize=auto;html=1;" edge="1" parent="1" source="r1eSAYKM6OvgT91_HVrA-34" target="r1eSAYKM6OvgT91_HVrA-31">
          <mxGeometry relative="1" as="geometry" />
        </mxCell>
        <mxCell id="r1eSAYKM6OvgT91_HVrA-16" value="" style="sketch=0;pointerEvents=1;shadow=0;dashed=0;html=1;strokeColor=none;fillColor=#005F4B;labelPosition=center;verticalLabelPosition=bottom;verticalAlign=top;align=center;outlineConnect=0;shape=mxgraph.veeam2.server_cluster;" vertex="1" parent="1">
          <mxGeometry x="100" y="560" width="186" height="78" as="geometry" />
        </mxCell>
        <mxCell id="r1eSAYKM6OvgT91_HVrA-28" style="rounded=0;orthogonalLoop=1;jettySize=auto;html=1;" edge="1" parent="1" source="r1eSAYKM6OvgT91_HVrA-17" target="r1eSAYKM6OvgT91_HVrA-25">
          <mxGeometry relative="1" as="geometry" />
        </mxCell>
        <mxCell id="r1eSAYKM6OvgT91_HVrA-29" style="edgeStyle=orthogonalEdgeStyle;rounded=0;orthogonalLoop=1;jettySize=auto;html=1;" edge="1" parent="1" source="r1eSAYKM6OvgT91_HVrA-17" target="r1eSAYKM6OvgT91_HVrA-26">
          <mxGeometry relative="1" as="geometry" />
        </mxCell>
        <mxCell id="r1eSAYKM6OvgT91_HVrA-30" style="rounded=0;orthogonalLoop=1;jettySize=auto;html=1;" edge="1" parent="1" source="r1eSAYKM6OvgT91_HVrA-17" target="r1eSAYKM6OvgT91_HVrA-27">
          <mxGeometry relative="1" as="geometry" />
        </mxCell>
        <mxCell id="r1eSAYKM6OvgT91_HVrA-17" value="" style="sketch=0;outlineConnect=0;fontColor=#232F3E;gradientColor=none;fillColor=#2E27AD;strokeColor=none;dashed=0;verticalLabelPosition=bottom;verticalAlign=top;align=center;html=1;fontSize=12;fontStyle=0;aspect=fixed;pointerEvents=1;shape=mxgraph.aws4.rds_multi_az_db_cluster;" vertex="1" parent="1">
          <mxGeometry x="154" y="790" width="78" height="78" as="geometry" />
        </mxCell>
        <mxCell id="r1eSAYKM6OvgT91_HVrA-18" value="Dallas09" style="text;html=1;strokeColor=none;fillColor=none;align=center;verticalAlign=middle;whiteSpace=wrap;rounded=0;" vertex="1" parent="1">
          <mxGeometry x="60" y="520" width="60" height="30" as="geometry" />
        </mxCell>
        <mxCell id="r1eSAYKM6OvgT91_HVrA-20" value="" style="sketch=0;pointerEvents=1;shadow=0;dashed=0;html=1;strokeColor=none;fillColor=#505050;labelPosition=center;verticalLabelPosition=bottom;verticalAlign=top;outlineConnect=0;align=center;shape=mxgraph.office.devices.hard_disk;" vertex="1" parent="1">
          <mxGeometry x="110" y="650" width="40" height="54" as="geometry" />
        </mxCell>
        <mxCell id="r1eSAYKM6OvgT91_HVrA-21" value="" style="sketch=0;pointerEvents=1;shadow=0;dashed=0;html=1;strokeColor=none;fillColor=#505050;labelPosition=center;verticalLabelPosition=bottom;verticalAlign=top;outlineConnect=0;align=center;shape=mxgraph.office.devices.hard_disk;" vertex="1" parent="1">
          <mxGeometry x="173" y="650" width="40" height="54" as="geometry" />
        </mxCell>
        <mxCell id="r1eSAYKM6OvgT91_HVrA-24" value="" style="sketch=0;pointerEvents=1;shadow=0;dashed=0;html=1;strokeColor=none;fillColor=#505050;labelPosition=center;verticalLabelPosition=bottom;verticalAlign=top;outlineConnect=0;align=center;shape=mxgraph.office.devices.hard_disk;" vertex="1" parent="1">
          <mxGeometry x="240" y="650" width="40" height="54" as="geometry" />
        </mxCell>
        <mxCell id="r1eSAYKM6OvgT91_HVrA-25" value="" style="sketch=0;pointerEvents=1;shadow=0;dashed=0;html=1;strokeColor=none;fillColor=#005F4B;labelPosition=center;verticalLabelPosition=bottom;verticalAlign=top;align=center;outlineConnect=0;shape=mxgraph.veeam2.folder;" vertex="1" parent="1">
          <mxGeometry x="116" y="710" width="28.000000000000004" height="24" as="geometry" />
        </mxCell>
        <mxCell id="r1eSAYKM6OvgT91_HVrA-26" value="" style="sketch=0;pointerEvents=1;shadow=0;dashed=0;html=1;strokeColor=none;fillColor=#005F4B;labelPosition=center;verticalLabelPosition=bottom;verticalAlign=top;align=center;outlineConnect=0;shape=mxgraph.veeam2.folder;" vertex="1" parent="1">
          <mxGeometry x="179" y="710" width="28.000000000000004" height="24" as="geometry" />
        </mxCell>
        <mxCell id="r1eSAYKM6OvgT91_HVrA-27" value="" style="sketch=0;pointerEvents=1;shadow=0;dashed=0;html=1;strokeColor=none;fillColor=#005F4B;labelPosition=center;verticalLabelPosition=bottom;verticalAlign=top;align=center;outlineConnect=0;shape=mxgraph.veeam2.folder;" vertex="1" parent="1">
          <mxGeometry x="252" y="710" width="28.000000000000004" height="24" as="geometry" />
        </mxCell>
        <mxCell id="r1eSAYKM6OvgT91_HVrA-31" value="备份机" style="shape=cylinder3;whiteSpace=wrap;html=1;boundedLbl=1;backgroundOutline=1;size=15;" vertex="1" parent="1">
          <mxGeometry x="460" y="637" width="60" height="80" as="geometry" />
        </mxCell>
        <mxCell id="r1eSAYKM6OvgT91_HVrA-34" value="" style="shadow=0;dashed=0;html=1;strokeColor=none;fillColor=#4495D1;labelPosition=center;verticalLabelPosition=bottom;verticalAlign=top;align=center;outlineConnect=0;shape=mxgraph.veeam.vm_checked;" vertex="1" parent="1">
          <mxGeometry x="232" y="508" width="54" height="52" as="geometry" />
        </mxCell>
        <mxCell id="r1eSAYKM6OvgT91_HVrA-35" value="Rsync redis DB" style="text;html=1;strokeColor=none;fillColor=none;align=center;verticalAlign=middle;whiteSpace=wrap;rounded=0;" vertex="1" parent="1">
          <mxGeometry x="350" y="540" width="60" height="30" as="geometry" />
        </mxCell>
        <mxCell id="r1eSAYKM6OvgT91_HVrA-53" value="" style="rounded=0;whiteSpace=wrap;html=1;" vertex="1" parent="1">
          <mxGeometry x="37" y="980" width="593" height="410" as="geometry" />
        </mxCell>
        <mxCell id="r1eSAYKM6OvgT91_HVrA-54" style="edgeStyle=orthogonalEdgeStyle;rounded=0;orthogonalLoop=1;jettySize=auto;html=1;startArrow=classic;startFill=1;endArrow=none;endFill=0;" edge="1" parent="1" source="r1eSAYKM6OvgT91_HVrA-68" target="r1eSAYKM6OvgT91_HVrA-67">
          <mxGeometry relative="1" as="geometry">
            <Array as="points">
              <mxPoint x="487" y="1020" />
            </Array>
          </mxGeometry>
        </mxCell>
        <mxCell id="r1eSAYKM6OvgT91_HVrA-55" value="" style="sketch=0;pointerEvents=1;shadow=0;dashed=0;html=1;strokeColor=none;fillColor=#005F4B;labelPosition=center;verticalLabelPosition=bottom;verticalAlign=top;align=center;outlineConnect=0;shape=mxgraph.veeam2.server_cluster;" vertex="1" parent="1">
          <mxGeometry x="97" y="1060" width="186" height="78" as="geometry" />
        </mxCell>
        <mxCell id="r1eSAYKM6OvgT91_HVrA-59" value="" style="sketch=0;outlineConnect=0;fontColor=#232F3E;gradientColor=none;fillColor=#E51400;strokeColor=none;dashed=0;verticalLabelPosition=bottom;verticalAlign=top;align=center;html=1;fontSize=12;fontStyle=0;aspect=fixed;pointerEvents=1;shape=mxgraph.aws4.rds_multi_az_db_cluster;" vertex="1" parent="1">
          <mxGeometry x="151" y="1290" width="78" height="78" as="geometry" />
        </mxCell>
        <mxCell id="r1eSAYKM6OvgT91_HVrA-60" value="Dallas09" style="text;html=1;strokeColor=none;fillColor=none;align=center;verticalAlign=middle;whiteSpace=wrap;rounded=0;" vertex="1" parent="1">
          <mxGeometry x="57" y="1020" width="60" height="30" as="geometry" />
        </mxCell>
        <mxCell id="r1eSAYKM6OvgT91_HVrA-61" value="" style="sketch=0;pointerEvents=1;shadow=0;dashed=0;html=1;strokeColor=none;fillColor=#505050;labelPosition=center;verticalLabelPosition=bottom;verticalAlign=top;outlineConnect=0;align=center;shape=mxgraph.office.devices.hard_disk;" vertex="1" parent="1">
          <mxGeometry x="107" y="1150" width="40" height="54" as="geometry" />
        </mxCell>
        <mxCell id="r1eSAYKM6OvgT91_HVrA-62" value="" style="sketch=0;pointerEvents=1;shadow=0;dashed=0;html=1;strokeColor=none;fillColor=#505050;labelPosition=center;verticalLabelPosition=bottom;verticalAlign=top;outlineConnect=0;align=center;shape=mxgraph.office.devices.hard_disk;" vertex="1" parent="1">
          <mxGeometry x="170" y="1150" width="40" height="54" as="geometry" />
        </mxCell>
        <mxCell id="r1eSAYKM6OvgT91_HVrA-63" value="" style="sketch=0;pointerEvents=1;shadow=0;dashed=0;html=1;strokeColor=none;fillColor=#505050;labelPosition=center;verticalLabelPosition=bottom;verticalAlign=top;outlineConnect=0;align=center;shape=mxgraph.office.devices.hard_disk;" vertex="1" parent="1">
          <mxGeometry x="237" y="1150" width="40" height="54" as="geometry" />
        </mxCell>
        <mxCell id="r1eSAYKM6OvgT91_HVrA-64" value="" style="sketch=0;pointerEvents=1;shadow=0;dashed=0;html=1;strokeColor=none;fillColor=#005F4B;labelPosition=center;verticalLabelPosition=bottom;verticalAlign=top;align=center;outlineConnect=0;shape=mxgraph.veeam2.folder;" vertex="1" parent="1">
          <mxGeometry x="113" y="1210" width="28.000000000000004" height="24" as="geometry" />
        </mxCell>
        <mxCell id="r1eSAYKM6OvgT91_HVrA-65" value="" style="sketch=0;pointerEvents=1;shadow=0;dashed=0;html=1;strokeColor=none;fillColor=#005F4B;labelPosition=center;verticalLabelPosition=bottom;verticalAlign=top;align=center;outlineConnect=0;shape=mxgraph.veeam2.folder;" vertex="1" parent="1">
          <mxGeometry x="176" y="1210" width="28.000000000000004" height="24" as="geometry" />
        </mxCell>
        <mxCell id="r1eSAYKM6OvgT91_HVrA-66" value="" style="sketch=0;pointerEvents=1;shadow=0;dashed=0;html=1;strokeColor=none;fillColor=#005F4B;labelPosition=center;verticalLabelPosition=bottom;verticalAlign=top;align=center;outlineConnect=0;shape=mxgraph.veeam2.folder;" vertex="1" parent="1">
          <mxGeometry x="249" y="1210" width="28.000000000000004" height="24" as="geometry" />
        </mxCell>
        <mxCell id="r1eSAYKM6OvgT91_HVrA-67" value="备份机" style="shape=cylinder3;whiteSpace=wrap;html=1;boundedLbl=1;backgroundOutline=1;size=15;" vertex="1" parent="1">
          <mxGeometry x="457" y="1137" width="60" height="80" as="geometry" />
        </mxCell>
        <mxCell id="r1eSAYKM6OvgT91_HVrA-71" style="edgeStyle=orthogonalEdgeStyle;rounded=0;orthogonalLoop=1;jettySize=auto;html=1;" edge="1" parent="1" source="r1eSAYKM6OvgT91_HVrA-68" target="r1eSAYKM6OvgT91_HVrA-63">
          <mxGeometry relative="1" as="geometry">
            <Array as="points">
              <mxPoint x="350" y="1034" />
              <mxPoint x="350" y="1177" />
            </Array>
          </mxGeometry>
        </mxCell>
        <mxCell id="r1eSAYKM6OvgT91_HVrA-68" value="" style="shadow=0;dashed=0;html=1;strokeColor=none;fillColor=#4495D1;labelPosition=center;verticalLabelPosition=bottom;verticalAlign=top;align=center;outlineConnect=0;shape=mxgraph.veeam.vm_checked;" vertex="1" parent="1">
          <mxGeometry x="229" y="1008" width="54" height="52" as="geometry" />
        </mxCell>
        <mxCell id="r1eSAYKM6OvgT91_HVrA-69" value="Copy redis DB" style="text;html=1;strokeColor=none;fillColor=none;align=center;verticalAlign=middle;whiteSpace=wrap;rounded=0;" vertex="1" parent="1">
          <mxGeometry x="390" y="990" width="60" height="30" as="geometry" />
        </mxCell>
        <mxCell id="r1eSAYKM6OvgT91_HVrA-72" value="" style="rounded=0;whiteSpace=wrap;html=1;" vertex="1" parent="1">
          <mxGeometry x="40" y="1465" width="550" height="425" as="geometry" />
        </mxCell>
        <mxCell id="r1eSAYKM6OvgT91_HVrA-73" style="edgeStyle=orthogonalEdgeStyle;rounded=0;orthogonalLoop=1;jettySize=auto;html=1;" edge="1" parent="1" source="r1eSAYKM6OvgT91_HVrA-74" target="r1eSAYKM6OvgT91_HVrA-75">
          <mxGeometry relative="1" as="geometry" />
        </mxCell>
        <mxCell id="r1eSAYKM6OvgT91_HVrA-80" style="edgeStyle=orthogonalEdgeStyle;rounded=0;orthogonalLoop=1;jettySize=auto;html=1;" edge="1" parent="1" source="r1eSAYKM6OvgT91_HVrA-74" target="r1eSAYKM6OvgT91_HVrA-78">
          <mxGeometry relative="1" as="geometry" />
        </mxCell>
        <mxCell id="r1eSAYKM6OvgT91_HVrA-74" value="" style="sketch=0;pointerEvents=1;shadow=0;dashed=0;html=1;strokeColor=none;fillColor=#005F4B;labelPosition=center;verticalLabelPosition=bottom;verticalAlign=top;align=center;outlineConnect=0;shape=mxgraph.veeam2.server_cluster;" vertex="1" parent="1">
          <mxGeometry x="100" y="1515" width="186" height="78" as="geometry" />
        </mxCell>
        <mxCell id="r1eSAYKM6OvgT91_HVrA-75" value="" style="sketch=0;outlineConnect=0;fontColor=#232F3E;gradientColor=none;fillColor=#2E27AD;strokeColor=none;dashed=0;verticalLabelPosition=bottom;verticalAlign=top;align=center;html=1;fontSize=12;fontStyle=0;aspect=fixed;pointerEvents=1;shape=mxgraph.aws4.rds_multi_az_db_cluster;" vertex="1" parent="1">
          <mxGeometry x="154" y="1745" width="78" height="78" as="geometry" />
        </mxCell>
        <mxCell id="r1eSAYKM6OvgT91_HVrA-76" value="Dallas09" style="text;html=1;strokeColor=none;fillColor=none;align=center;verticalAlign=middle;whiteSpace=wrap;rounded=0;" vertex="1" parent="1">
          <mxGeometry x="60" y="1475" width="60" height="30" as="geometry" />
        </mxCell>
        <mxCell id="r1eSAYKM6OvgT91_HVrA-77" value="" style="shadow=0;dashed=0;html=1;strokeColor=none;fillColor=#4495D1;labelPosition=center;verticalLabelPosition=bottom;verticalAlign=top;align=center;outlineConnect=0;shape=mxgraph.veeam.2d.vm_running;" vertex="1" parent="1">
          <mxGeometry x="239" y="1463" width="54" height="52" as="geometry" />
        </mxCell>
        <mxCell id="r1eSAYKM6OvgT91_HVrA-83" style="rounded=0;orthogonalLoop=1;jettySize=auto;html=1;" edge="1" parent="1" source="r1eSAYKM6OvgT91_HVrA-78" target="r1eSAYKM6OvgT91_HVrA-81">
          <mxGeometry relative="1" as="geometry" />
        </mxCell>
        <mxCell id="r1eSAYKM6OvgT91_HVrA-86" style="rounded=0;orthogonalLoop=1;jettySize=auto;html=1;entryX=0;entryY=0;entryDx=0;entryDy=52.5;entryPerimeter=0;" edge="1" parent="1" source="r1eSAYKM6OvgT91_HVrA-78" target="r1eSAYKM6OvgT91_HVrA-84">
          <mxGeometry relative="1" as="geometry" />
        </mxCell>
        <mxCell id="r1eSAYKM6OvgT91_HVrA-78" value="" style="sketch=0;pointerEvents=1;shadow=0;dashed=0;html=1;strokeColor=none;fillColor=#DF8C42;labelPosition=center;verticalLabelPosition=bottom;verticalAlign=top;align=center;outlineConnect=0;shape=mxgraph.veeam2.application;" vertex="1" parent="1">
          <mxGeometry x="403" y="1537" width="34" height="34" as="geometry" />
        </mxCell>
        <mxCell id="r1eSAYKM6OvgT91_HVrA-79" value="备份软件" style="text;html=1;strokeColor=none;fillColor=none;align=center;verticalAlign=middle;whiteSpace=wrap;rounded=0;" vertex="1" parent="1">
          <mxGeometry x="390" y="1580" width="60" height="30" as="geometry" />
        </mxCell>
        <mxCell id="r1eSAYKM6OvgT91_HVrA-81" value="" style="shape=cylinder3;whiteSpace=wrap;html=1;boundedLbl=1;backgroundOutline=1;size=15;" vertex="1" parent="1">
          <mxGeometry x="500" y="1457" width="60" height="80" as="geometry" />
        </mxCell>
        <mxCell id="r1eSAYKM6OvgT91_HVrA-82" value="本地备份节点" style="text;html=1;strokeColor=none;fillColor=none;align=center;verticalAlign=middle;whiteSpace=wrap;rounded=0;" vertex="1" parent="1">
          <mxGeometry x="500" y="1541" width="60" height="30" as="geometry" />
        </mxCell>
        <mxCell id="r1eSAYKM6OvgT91_HVrA-84" value="" style="shape=cylinder3;whiteSpace=wrap;html=1;boundedLbl=1;backgroundOutline=1;size=15;" vertex="1" parent="1">
          <mxGeometry x="668" y="1610" width="60" height="80" as="geometry" />
        </mxCell>
        <mxCell id="r1eSAYKM6OvgT91_HVrA-85" value="COS 等远端备份节点" style="text;html=1;strokeColor=none;fillColor=none;align=center;verticalAlign=middle;whiteSpace=wrap;rounded=0;" vertex="1" parent="1">
          <mxGeometry x="668" y="1700" width="60" height="30" as="geometry" />
        </mxCell>
      </root>
    </mxGraphModel>
  </diagram>
</mxfile>
